<?xml version="1.0" encoding="UTF-8"?>
<svg xmlns="http://www.w3.org/2000/svg" xmlns:xlink="http://www.w3.org/1999/xlink" viewBox="0 0 48 48" width="48px" height="48px">
<g id="surface6608473">
<path style=" stroke:none;fill-rule:nonzero;fill:rgb(100%,100%,100%);fill-opacity:1;" d="M 38.648438 14.933594 L 39.855469 15.914062 L 47.828125 9.964844 L 45.4375 6.757812 L 39.925781 10.871094 C 30.300781 3.835938 19.398438 4.441406 11.8125 12.574219 C 9.214844 15.355469 7.644531 18.785156 7.214844 22.445312 L 7.199219 22.441406 L 0.1875 42 L 23.949219 42 C 28.132812 41.980469 32.273438 40.332031 35.253906 37.140625 C 39.941406 32.117188 39.824219 23.960938 34.992188 18.957031 C 32.480469 16.355469 29.226562 14.867188 26.058594 14.867188 C 26.035156 14.867188 26.015625 14.867188 25.992188 14.867188 C 23.144531 14.882812 20.523438 16.078125 18.414062 18.316406 C 15.132812 21.804688 15.207031 27.894531 18.570312 31.347656 C 21.101562 33.945312 25.664062 34.980469 28.628906 32.121094 C 29.75 31.035156 30.3125 29.367188 30.125 27.65625 C 29.941406 25.964844 29.082031 24.523438 27.761719 23.714844 L 26.058594 22.664062 L 23.960938 26.074219 L 25.664062 27.121094 C 25.910156 27.273438 26.101562 27.652344 26.148438 28.089844 C 26.199219 28.558594 26.078125 29.023438 25.851562 29.242188 C 24.605469 30.441406 22.449219 29.597656 21.433594 28.554688 C 19.5625 26.632812 19.507812 22.988281 21.328125 21.058594 C 22.6875 19.613281 24.265625 18.878906 26.019531 18.867188 C 26.03125 18.867188 26.046875 18.867188 26.058594 18.867188 C 28.148438 18.867188 30.351562 19.910156 32.113281 21.734375 C 35.433594 25.171875 35.53125 30.976562 32.328125 34.410156 C 28.140625 38.894531 20.855469 39.226562 16.085938 35.144531 C 13.082031 32.574219 11.3125 29.0625 11.097656 25.257812 C 10.890625 21.570312 12.183594 18.035156 14.734375 15.300781 C 21.203125 8.371094 30.367188 8.230469 38.648438 14.933594 Z M 13.292969 38 L 5.871094 38 L 8.355469 31.070312 C 9.402344 33.683594 11.074219 36.050781 13.292969 38 Z M 13.292969 38 "/>
</g>
</svg>
